HIERARCHY
ROOT Hips
{
	OFFSET	0	0	0
	CHANNELS 6  Xposition Yposition Zposition Xrotation Yrotation Zrotation
	JOINT Spine
	{
		OFFSET	0	7.36801	1.47921
		CHANNELS 3  Xrotation Yrotation Zrotation
		JOINT Spine1
		{
			OFFSET	0	12.6146	-2.2526
			CHANNELS 3  Xrotation Yrotation Zrotation
			JOINT Spine2
			{
				OFFSET	0	9.56229	1.02493
				CHANNELS 3  Xrotation Yrotation Zrotation
				JOINT Spine3
				{
					OFFSET	0	11.4432	3.40143
					CHANNELS 3  Xrotation Yrotation Zrotation
					JOINT Spine4
					{
						OFFSET	0	16.9396	-1.7345
						CHANNELS 3  Xrotation Yrotation Zrotation
						JOINT Neck
						{
							OFFSET	0	8.08684	-5.66529
							CHANNELS 3  Xrotation Yrotation Zrotation
							JOINT Head
							{
								OFFSET	0	9.70872	-2.90586
								CHANNELS 3  Xrotation Yrotation Zrotation
								End Site
								{
									OFFSET	0	20.2509	-0.979882
								}
							}
						}
					}
					JOINT LeftShoulder
					{
						OFFSET	-4.86562	20.5888	-9.70871
						CHANNELS 3  Xrotation Yrotation Zrotation
						JOINT LeftArm
						{
							OFFSET	-10.6038	-2.90585	3.72808
							CHANNELS 3  Xrotation Yrotation Zrotation
							JOINT LeftForeArm
							{
								OFFSET	-30.8337	-1.4073	2.20088
								CHANNELS 3  Xrotation Yrotation Zrotation
								JOINT LeftHand
								{
									OFFSET	-25.1332	-1.73684	1.79398
									CHANNELS 3  Xrotation Yrotation Zrotation
									End Site
									{
										OFFSET	-9.17235	-0.633862	0.65467
									}
								}
							}
						}
					}
					JOINT RightShoulder
					{
						OFFSET	4.86562	20.5888	-9.70871
						CHANNELS 3  Xrotation Yrotation Zrotation
						JOINT RightArm
						{
							OFFSET	10.6038	-2.90585	3.72808
							CHANNELS 3  Xrotation Yrotation Zrotation
							JOINT RightForeArm
							{
								OFFSET	30.8337	-1.4073	2.20088
								CHANNELS 3  Xrotation Yrotation Zrotation
								JOINT RightHand
								{
									OFFSET	25.1332	-1.73684	1.79398
									CHANNELS 3  Xrotation Yrotation Zrotation
									End Site
									{
										OFFSET	9.17235	-0.633862	0.65467
									}
								}
							}
						}
					}
				}
			}
		}
	}
	JOINT LeftUpLeg
	{
		OFFSET	-10.0134	-3.684	-0.739604
		CHANNELS 3  Xrotation Yrotation Zrotation
		JOINT LeftLeg
		{
			OFFSET	-2.30148	-45.0967	-0.70496
			CHANNELS 3  Xrotation Yrotation Zrotation
			JOINT LeftFoot
			{
				OFFSET	-2.24997	-41.4741	3.56677
				CHANNELS 3  Xrotation Yrotation Zrotation
				JOINT LeftToeBase
				{
					OFFSET	0	-5.07523	-13.4798
					CHANNELS 3  Xrotation Yrotation Zrotation
					End Site
					{
						OFFSET	0	-2.03009	-8.12037
					}
				}
			}
		}
	}
	JOINT RightUpLeg
	{
		OFFSET	10.0134	-3.684	-0.739604
		CHANNELS 3  Xrotation Yrotation Zrotation
		JOINT RightLeg
		{
			OFFSET	2.30148	-45.0967	-0.70496
			CHANNELS 3  Xrotation Yrotation Zrotation
			JOINT RightFoot
			{
				OFFSET	2.24997	-41.4741	3.56677
				CHANNELS 3  Xrotation Yrotation Zrotation
				JOINT RightToeBase
				{
					OFFSET	0	-5.07523	-13.4798
					CHANNELS 3  Xrotation Yrotation Zrotation
					End Site
					{
						OFFSET	0	-2.03009	-8.12037
					}
				}
			}
		}
	}
}
MOTION
Frames: 20
Frame Time: 0.020408
 0 -12.0709 2.70641 -0 0 -0 -0 0 -0 -0 0 -0 -0 0 -0 -0 0 -0 -0 0 -0 -0 0 -0 -0 0 -0 -0 0 -0 -0 0 -0 -0 0 -0 -0 0 -0 -0 0 -0 -0 0 -0 -0 0 -0 -0 0 -0 -0 0 -0 -0 0 -0 -0 0 -0 -0 0 -0 -0 0 -0 -0 0 -0 -0 0 -0 -0 0 -0
 50.3515 94.5581 -286.33 20.769 13.4613 13.7852 0.00359514 0.0387773 -5.29689 173.788 179.923 171.172 175.285 179.769 171.172 0.273782 0.0387773 -5.29689 167.619 179.621 178.275 150.538 179.778 179.882 171.161 179.548 -179.958 1.39218 -9.23448 2.87442 3.65144 -13.7652 25.1676 1.94228 -45.3314 -0.412964 -0 -1.4138 1.83684 175.164 -176.037 -170.97 1.39668 -17.4999 0.199615 177.321 141.377 -176.701 -0 1.22488 1.80457 18.5547 37.1293 -15.8402 164.474 175.061 179.923 24.7093 -0.0408331 -10.7937 179.985 180 -180 44.8378 59.7575 -90.422 97.6304 176.37 179.893 12.1056 0.399223 2.81549 1.39823 0 0
 48.351 93.6677 -285.71 20.1279 14.6047 12.8771 0.00477858 0.046467 -5.87154 173.626 179.908 170.214 175.126 179.724 170.214 0.147679 0.046467 -5.87154 167.604 179.58 178.088 150.649 179.772 -179.791 171.194 179.574 -179.879 1.2918 -8.95181 2.66261 3.84979 -13.4732 28.4338 2.06647 -46.6339 -0.493302 -0 -1.47962 1.90204 175.468 -175.231 -171.617 1.2894 -20.3297 -0.746101 177.078 141.3 -176.691 -0 0.984688 1.91471 17.8288 39.1284 -12.6984 163.928 175.169 179.612 24.4851 0.00680693 -10.6081 179.982 180 -180 44.4174 63.9186 -90.0463 94.5006 178.063 179.888 25.0437 0.326328 3.44698 1.39482 0 0
 47.4403 92.8741 -285.104 19.6321 12.8559 12.6028 0.00259623 0.023045 -6.42779 173.47 179.954 169.287 174.941 179.863 169.287 0.00534922 0.023045 -6.42779 167.651 179.542 177.907 150.921 179.841 179.945 171.276 179.678 -179.963 1.32973 -8.72479 2.73723 3.87287 -13.2629 31.6533 2.16557 -47.5138 -0.34996 -0 -1.46211 1.98386 175.593 -174.08 -171.955 0.837611 -22.9786 -1.56709 176.92 141.196 -176.636 -0 0.783925 1.96024 17.3134 40.7779 -10.5182 163.699 175.114 179.553 24.4259 0.274856 -10.4876 179.978 180 -180 44.4503 67.0183 -89.9038 92.3592 179.456 179.823 33.1651 0.245337 3.94559 1.38451 0 0
 46.7561 92.6553 -285.267 19.5391 11.7314 12.0251 0.000943894 0.00807247 -6.66917 173.288 179.984 168.885 174.735 179.952 168.885 179.848 179.992 173.331 167.682 179.525 177.828 151.174 179.978 -179.917 171.352 179.967 -179.974 1.10667 -7.83798 2.26554 3.56094 -12.7205 34.2277 2.30255 -48.6129 -0.189427 -0 -1.50871 2.01392 175.278 -172.621 -171.521 179.606 -154.77 177.564 176.868 140.905 -176.577 -0 0.688604 1.9016 17.0778 42.0202 -9.60795 164.614 175.175 179.794 22.7252 0.186662 -10.4079 179.974 180 -180 44.6876 68.5659 -89.7934 92.7659 179.627 179.85 35.0079 0.18434 4.07121 1.36437 0 0
 46.2453 92.7923 -285.111 19.4435 10.568 11.4677 179.998 -179.986 173.19 173.137 -179.972 168.65 174.559 -179.916 168.65 179.725 -179.986 173.19 167.693 179.516 177.782 151.342 -179.919 -179.534 171.403 -179.775 -179.917 0.875584 -6.70346 1.77928 3.09366 -12.0668 36.2777 2.3988 -49.4444 -0.0960398 -0 -1.53669 2.0369 174.997 -171.301 -171.155 178.285 -152.921 176.653 176.793 140.808 -176.445 -0 0.634768 1.90766 17.0512 42.856 -9.51398 165.474 175.26 179.662 20.7529 0.10615 -10.3382 179.968 180 -180 45.3574 68.6853 -90.4805 93.9588 179.445 -179.904 33.3375 0.0759041 4.12934 1.32876 0 0
 45.8736 92.9193 -285.044 19.2342 11.9005 12.0222 1.04892e-05 8.47283e-05 -7.05717 172.983 180 168.238 174.42 179.999 168.238 179.632 180 172.943 167.615 179.495 177.702 151.267 -179.723 -179.099 171.38 -179.33 -179.878 0.620701 -6.92299 1.26301 3.13463 -12.2491 37.622 2.51015 -50.2455 0.124234 -0 -1.55889 2.08435 174.768 -170.788 -170.804 177.09 -151.73 175.852 176.782 140.273 -176.244 -0 0.646469 1.89793 16.3034 43.4635 -9.03414 166.642 175.509 179.75 19.0108 0.0167255 -10.2812 179.961 180 -180 45.2414 67.4767 -90.3591 95.7108 178.483 -179.781 31.3669 0.0329008 4.19875 1.29412 0 0
 45.6875 93.2269 -285.195 19.6647 13.1603 12.5328 179.999 -179.99 172.729 172.829 -179.98 167.882 174.239 -179.94 167.882 179.476 -179.99 172.729 167.695 179.483 177.632 151.636 -179.517 -178.713 171.489 -178.854 -179.853 0.535932 -7.76731 1.09638 3.63003 -12.8068 38.7261 2.58857 -50.8492 0.217415 -0 -1.56747 2.10168 174.521 -170.195 -170.437 175.882 -150.455 175.139 176.827 140.503 -176.219 -0 0.56443 1.76188 16.1891 43.8479 -9.47538 167.711 175.753 179.814 18.3659 0.00546225 -10.2639 179.956 180 -180 45.0604 66.4313 -90.4061 97.1778 177.095 -179.651 27.4737 0.0768099 4.13062 1.25677 0 0
 45.6155 93.1001 -285.06 19.9335 14.0972 12.7526 179.997 -179.979 172.614 172.652 -179.959 167.691 174.053 -179.876 167.691 179.361 -179.979 172.614 167.633 179.472 177.595 151.623 -179.272 -178.453 171.484 -178.332 -179.87 0.304238 -8.69434 0.625873 4.0788 -13.3813 39.3335 2.67549 -51.4003 0.399368 -0 -1.57759 2.1334 174.266 -170.993 -169.878 174.841 -150.331 174.845 176.969 140.33 -176.314 -0 0.477953 1.8521 16.148 43.963 -9.98761 168.416 176.034 179.77 17.7314 -0.0190666 -10.3264 179.95 180 -180 45.6565 64.6453 -90.8969 100.763 175.399 -179.174 18.5938 -0.0638737 4.07206 1.20405 0 0
 45.6719 93.0183 -284.5 20.4628 14.8334 13.2308 0.00076644 0.00582645 -7.49394 172.427 179.989 167.51 173.859 179.966 167.51 179.232 179.994 172.506 167.497 179.459 177.561 151.456 -179.101 -177.775 171.432 -177.907 -179.766 0.148334 -10.1858 0.307732 4.85253 -14.2707 39.785 2.79324 -52.1267 0.573069 -0 -1.68269 2.15369 173.943 -171.152 -169.274 173.25 -149.744 174.188 177.206 140.705 -176.415 -0 0.243093 1.80051 16.3512 43.8963 -10.7495 168.927 176.349 179.813 17.9812 -0.0334975 -10.3509 179.947 180 -180 45.7611 64.2113 -90.451 103.27 173.403 -179.464 15.6563 -0.126171 4.1607 1.16137 0 0
 45.7354 93.8989 -283.971 20.7542 16.3192 14.8783 180 -179.998 172.22 172.197 -179.997 167.033 173.66 -179.991 167.033 179.19 -179.998 172.22 167.165 179.424 177.471 150.719 -178.939 -176.869 171.209 -177.533 -179.601 0.390439 -11.9614 0.817422 5.93681 -15.2611 40.5553 2.87504 -52.7027 0.577028 -0 -1.69618 2.17302 173.834 -172.095 -168.945 170.831 -150.268 172.855 177.611 140.488 -176.941 -0 0.035298 1.50096 16.804 43.5285 -12.3116 169.789 176.776 179.891 18.9287 0.0503452 -10.3748 179.943 180 -180 46.5454 64.0011 -90.8634 104.697 171.92 -178.996 19.0504 -0.0121928 4.61408 1.12762 0 0
 45.4172 93.7764 -283.12 21.0658 17.2447 15.517 0.00105626 0.00748475 -8.03261 171.984 179.985 166.612 173.437 179.956 166.612 178.994 179.993 171.967 167.215 179.407 177.389 151.069 -178.772 -176.667 171.312 -177.142 -179.609 0.647864 -13.9674 1.36875 6.90953 -16.2337 41.2871 2.94354 -53.1554 0.705154 -0 -1.72333 2.19518 173.581 -173.82 -168.24 169.066 -151.553 172.255 177.93 139.225 -176.891 -0 0.117115 1.06992 16.8198 43.2113 -12.6862 170.929 177.365 179.984 20.7862 0.109365 -10.3746 179.941 180 -180 46.056 63.7401 -90.3222 104.705 171.129 -178.885 22.1107 -0.087133 5.2314 1.09324 0 0
 45.786 93.3773 -282.329 21.5686 17.939 16.3223 0.00105538 0.00731852 -8.2059 171.736 179.986 166.324 173.174 179.957 166.324 178.783 179.993 171.794 167.24 179.395 177.332 151.375 -178.539 -177.079 171.4 -176.705 -179.78 0.759298 -15.7037 1.61512 7.8013 -17.1536 41.7423 3.02737 -53.6885 0.842392 -0 -1.75282 2.2085 172.394 -173.727 -166.009 166.716 -150.809 172.908 178.284 138.459 -177.154 -0 0.0576827 0.711612 17.1389 42.7626 -13.4115 171.773 177.925 179.654 21.4361 0.116012 -10.4551 179.935 180 -180 46.0298 63.5833 -90.2121 104.716 170.109 -178.75 25.3154 -0.0989702 5.8832 1.06122 0 0
 45.8027 93.5057 -282.037 21.6778 18.6308 16.7512 0.00119268 0.00821163 -8.26399 171.533 179.984 166.227 172.96 179.952 166.227 178.613 179.992 171.736 167.253 179.392 177.313 151.606 -178.383 -177.32 171.466 -176.409 -179.885 0.642774 -16.8064 1.3724 8.31178 -17.518 41.0906 3.0474 -53.9303 0.722916 -0 -1.7049 2.19288 171.215 -173.35 -163.813 164.137 -149.715 172.991 178.73 138.041 -177.578 -0 0.00361477 0.222258 17.2605 42.123 -13.8079 171.969 178.436 179.729 21.6054 0.0530323 -10.541 179.93 180 -180 45.6942 62.3455 -90.399 104.32 169.521 -179.214 26.3432 0.0855192 6.2515 1.0219 0 0
 45.7866 93.0279 -282.141 21.9294 19.3536 17.0337 179.999 -179.995 171.633 171.333 -179.99 166.055 172.755 -179.97 166.055 178.503 -179.995 171.633 167.141 179.379 177.281 151.468 -178.217 -177.671 171.421 -176.144 179.983 0.411631 -17.4687 0.880673 8.4088 -17.6937 40.4574 3.03495 -53.9755 0.719688 -0 -1.62764 2.19482 170.507 -173.008 -162.506 161.824 -148.889 172.303 179.133 137.739 -177.753 -0 -0.0484854 -0.297125 17.835 41.4486 -14.2358 172.201 178.891 179.895 21.0451 0.0246975 -10.6171 179.923 180 -180 45.3372 60.9427 -90.4471 104.01 169.581 -179.699 25.3983 0.118558 6.43046 0.981534 0 0
 45.9527 92.5368 -282.049 21.4209 19.0263 18.0993 0.000616826 0.00410312 -8.5493 171.162 179.992 165.751 172.609 179.976 165.751 178.436 179.996 171.451 166.969 179.357 177.224 151.143 -178.076 -178.193 171.321 -175.959 179.817 0.107525 -16.8722 0.229607 7.98657 -17.4521 40.0545 3.12163 -54.5526 0.933504 -0 -1.67713 2.22616 170.036 -173.179 -161.547 160.085 -148.378 171.898 179.481 137.713 -177.805 -0 -0.188961 -0.726009 18.3859 40.9594 -14.3708 172.113 179.149 -179.917 19.8008 -0.00671601 -10.6711 179.918 180 -180 44.3833 59.4275 -89.7811 105.199 169.586 179.463 22.1473 0.15001 6.31918 0.944732 0 0
 45.7844 91.7885 -282.436 21.2313 18.9559 18.9717 179.999 -179.991 171.299 171.009 -179.983 165.499 172.44 -179.949 165.499 178.326 -179.991 171.299 166.944 179.344 177.175 151.21 -177.959 -178.631 171.339 -175.784 179.679 179.878 -164.086 179.741 7.43988 -16.7214 39.4431 3.04697 -54.3802 0.700511 -0 -1.64655 2.21759 169.794 -173.389 -161.02 158.604 -147.975 171.221 179.808 137.886 -178.075 -0 -0.32909 -1.11553 19.201 40.697 -14.2441 171.545 179.123 -179.845 16.2018 -0.00136209 -10.7049 179.91 180 -180 44.9077 58.7943 -90.0081 105.269 169.784 179.745 20.2577 0.0183082 6.29389 0.917464 0 0
 46.0963 91.8678 -282.597 21.3853 19.1226 19.1928 0.000467293 0.00301306 -8.81572 170.897 179.994 165.307 172.339 179.982 165.307 178.247 179.997 171.184 166.91 179.334 177.138 151.225 -177.796 -179.111 171.34 -175.525 179.516 179.808 -164.851 179.591 7.18899 -16.447 39.3923 3.13323 -54.827 0.773438 -0 -1.69436 2.1946 169.79 -173.483 -160.992 157.302 -147.624 170.528 0.110362 42.1833 1.6582 -0 -0.424404 -1.47358 19.6788 40.3252 -14.9974 171.02 179.286 179.897 14.2986 0.0103681 -10.7759 179.905 180 -180 45.4028 58.6157 -90.0381 105.445 169.726 -179.926 21.1675 0.0655362 6.18971 0.900066 0 0
 45.9416 92.2515 -282.647 21.2795 18.8764 19.725 0.00180232 0.0112856 -9.07355 170.804 179.978 164.877 172.245 179.934 164.877 178.155 179.989 170.926 166.946 179.316 177.054 151.418 -177.601 -179.683 171.394 -175.216 179.325 0.0210452 -14.3561 0.0445289 6.98237 -16.2108 39.7147 3.1439 -54.9853 0.80561 -0 -1.70464 2.23043 169.946 -173.611 -161.273 156.346 -147.152 169.626 0.298632 42.3449 1.64213 -0 -0.440423 -1.86645 20.0158 39.7449 -15.8784 170.73 179.589 179.888 14.3264 0.126858 -10.8217 179.902 180 -180 45.1148 58.4511 -90.0544 105.037 169.821 -179.595 21.3608 0.0344659 6.17505 0.881446 0 0
 46.3009 92.805 -282.73 20.9853 18.8366 21.0466 0.00113851 0.00690021 -9.36922 170.712 179.987 164.385 172.149 179.96 164.385 178.097 179.993 170.631 166.909 179.292 176.958 151.397 -177.392 179.818 171.384 -174.872 179.144 0.273019 -13.3133 0.575149 6.76706 -15.906 40.192 3.1787 -55.2248 0.846913 -0 -1.72259 2.24806 169.808 -174 -160.914 156.014 -146.705 170.074 0.376253 42.4858 1.413 -0 -0.484679 -1.95834 19.8551 39.0112 -16.7404 170.184 -179.674 -179.855 14.3272 -0.0305544 -10.7496 179.901 180 -180 45.0957 58.7827 -90.2984 103.837 169.854 -179.694 22.2176 0.0741038 6.12622 0.866804 0 0
